<?xml version="1.0" standalone="no"?>
<!DOCTYPE svg PUBLIC "-//W3C//DTD SVG 20010904//EN"
 "http://www.w3.org/TR/2001/REC-SVG-20010904/DTD/svg10.dtd">
<svg version="1.0" xmlns="http://www.w3.org/2000/svg"
 width="1404.000000pt" height="1404.000000pt" viewBox="0 0 1404.000000 1404.000000"
 preserveAspectRatio="xMidYMid meet">
<metadata>
Created by potrace 1.11, written by Peter Selinger 2001-2013
</metadata>
<g transform="translate(0.000000,1404.000000) scale(0.100000,-0.100000)"
fill="#000000" stroke="none">
<path d="M2337 10714 c-1 -1 -36 -5 -77 -8 -89 -8 -275 -45 -345 -70 -5 -2
-21 -7 -34 -12 -14 -4 -50 -20 -80 -36 -31 -15 -62 -28 -68 -28 -7 0 -13 -4
-13 -10 0 -5 -5 -10 -10 -10 -21 0 -117 -74 -181 -138 -55 -57 -159 -198 -159
-217 0 -3 -8 -25 -19 -48 -18 -42 -33 -78 -36 -87 -1 -3 -13 -43 -28 -90 -26
-83 -45 -155 -51 -195 -5 -35 -18 -109 -22 -130 -2 -11 -7 -42 -10 -70 -3 -27
-7 -63 -9 -80 -19 -159 -23 -278 -25 -788 -2 -246 -6 -450 -11 -453 -4 -2 -6
-10 -3 -17 2 -7 0 -35 -6 -62 -6 -28 -12 -61 -14 -75 -5 -44 -37 -143 -68
-210 -64 -138 -171 -265 -280 -332 -29 -18 -62 -39 -73 -46 -11 -6 -27 -15
-35 -18 -8 -3 -26 -11 -40 -16 -14 -6 -34 -14 -45 -19 -34 -13 -125 -37 -245
-64 -156 -35 -213 -60 -266 -114 -60 -62 -75 -107 -79 -236 -8 -230 80 -331
325 -374 64 -11 89 -16 132 -27 13 -3 34 -7 48 -10 14 -3 43 -10 65 -16 22 -6
45 -12 50 -14 6 -1 37 -12 70 -25 33 -13 62 -24 65 -24 22 -3 159 -85 195
-117 40 -35 114 -129 107 -136 -1 -1 4 -15 12 -30 11 -21 31 -82 41 -122 0 -3
4 -14 7 -25 4 -11 9 -38 13 -60 3 -22 8 -53 11 -70 12 -73 16 -146 20 -395 2
-146 6 -402 8 -570 3 -168 8 -327 10 -355 3 -27 8 -70 10 -95 60 -594 235
-930 564 -1085 42 -20 84 -40 93 -45 18 -9 91 -30 99 -28 3 1 15 -4 27 -10 12
-7 37 -14 55 -17 18 -2 47 -7 63 -11 17 -3 41 -8 55 -9 14 -2 25 -4 25 -5 0
-7 215 -22 315 -22 178 1 271 39 356 144 9 12 26 46 28 58 1 3 4 10 7 15 3 6
7 45 8 87 8 217 -117 336 -394 378 -93 14 -217 43 -260 61 -16 7 -32 13 -35
13 -3 1 -26 14 -53 29 -86 51 -143 117 -185 217 -15 35 -35 138 -49 250 -2 19
-6 256 -8 525 -3 474 -11 797 -19 842 -3 12 -7 46 -11 75 -3 29 -7 64 -9 78
-2 14 -7 45 -10 69 -7 50 -18 93 -49 196 -12 39 -22 72 -22 75 -12 46 -70 155
-110 207 -90 118 -225 230 -345 285 -90 41 -147 65 -174 72 -37 9 -27 17 54
45 73 26 193 82 198 94 2 4 9 7 15 7 16 0 147 103 190 149 71 77 136 184 173
286 18 50 61 215 68 260 3 22 7 49 10 60 27 130 36 352 41 990 2 286 6 540 9
565 11 79 35 200 45 218 5 9 8 19 8 22 -3 11 38 95 58 119 39 48 91 91 135
113 25 13 47 26 50 29 3 3 14 8 25 12 11 3 45 13 75 22 30 9 69 18 85 21 17 2
46 6 65 10 19 3 51 7 70 10 19 3 51 9 70 14 19 5 38 10 43 10 16 0 123 60 147
82 72 65 100 140 97 258 -5 162 -85 258 -246 296 -43 10 -294 17 -304 8z"/>
<path d="M11380 10706 c-97 -27 -152 -66 -203 -144 -15 -23 -25 -42 -23 -42 2
0 -1 -21 -8 -47 -16 -64 -8 -185 14 -207 6 -6 10 -16 10 -23 0 -13 14 -32 62
-84 50 -55 174 -100 338 -124 25 -4 56 -9 70 -11 24 -3 63 -12 85 -18 72 -21
188 -83 228 -123 39 -37 103 -123 92 -123 -3 0 0 -10 6 -22 12 -23 38 -107 43
-143 2 -11 6 -38 10 -60 15 -85 17 -176 21 -695 1 -294 6 -573 9 -620 8 -108
18 -220 20 -234 2 -6 6 -33 10 -61 16 -103 33 -189 47 -235 45 -141 80 -218
112 -241 12 -9 150 -107 306 -219 l284 -204 -39 -14 c-22 -7 -47 -15 -56 -17
-29 -6 -177 -83 -237 -122 -72 -48 -152 -119 -208 -187 -45 -53 -131 -217
-140 -265 -2 -13 -8 -31 -12 -40 -9 -16 -44 -178 -55 -253 -3 -21 -8 -53 -11
-70 -20 -132 -27 -336 -30 -883 -2 -286 -6 -540 -9 -565 -3 -25 -6 -62 -7 -83
-1 -21 -6 -40 -11 -43 -4 -3 -6 -9 -4 -13 6 -8 -18 -109 -37 -156 -58 -149
-250 -263 -492 -290 -260 -29 -395 -128 -424 -312 -9 -60 -8 -76 10 -154 25
-109 141 -198 278 -215 75 -10 280 -4 386 11 17 2 50 7 75 10 104 14 260 62
365 111 63 29 148 82 153 96 2 4 9 8 16 8 23 0 157 153 203 232 26 44 48 86
49 92 1 6 12 34 25 61 12 28 23 55 24 60 2 6 12 42 23 80 24 85 44 171 56 245
21 127 20 121 31 230 4 41 9 89 11 105 3 17 7 197 9 400 9 655 14 835 28 900
3 11 8 43 12 70 10 59 7 47 29 118 54 182 143 280 331 365 71 32 278 95 349
106 21 4 48 8 60 11 12 3 32 7 46 9 158 25 256 91 295 197 15 42 20 79 19 164
0 97 -3 116 -26 165 -31 65 -65 103 -118 130 -47 24 -120 50 -158 55 -30 4
-229 52 -252 61 -8 3 -15 4 -16 2 0 -2 -8 3 -17 11 -10 7 -17 11 -17 7 0 -11
-143 65 -207 110 -93 66 -176 164 -233 277 -27 54 -50 106 -50 117 0 10 -4 21
-9 24 -4 3 -14 34 -21 68 -6 35 -14 72 -17 83 -15 65 -21 226 -28 790 -3 215
-7 413 -9 440 -5 59 -15 149 -21 185 -2 14 -7 50 -10 80 -9 64 -12 85 -19 108
-3 9 -8 33 -11 52 -6 42 -10 60 -18 80 -4 8 -8 26 -11 40 -23 137 -140 370
-239 478 -81 87 -255 199 -362 232 -22 7 -46 17 -52 23 -7 5 -13 7 -13 4 0 -4
-18 0 -39 8 -43 15 -98 26 -201 40 -25 3 -52 9 -60 12 -33 12 -366 11 -410 -1z"/>
<path d="M4433 10061 l-142 -137 65 -63 c35 -35 64 -65 64 -67 0 -4 -31 -35
-224 -222 -58 -57 -106 -107 -106 -110 0 -4 27 -32 60 -62 33 -30 60 -58 60
-63 0 -11 -181 -187 -193 -187 -5 0 -21 12 -37 28 -15 15 -64 63 -109 106
l-82 79 -30 -29 c-57 -54 -214 -206 -307 -296 l-92 -91 100 -97 c189 -183 220
-212 230 -208 5 2 54 47 109 101 l100 97 24 -22 c13 -13 64 -62 114 -110 l90
-88 -106 -105 -106 -105 118 -115 c65 -63 122 -115 126 -115 3 0 53 45 110
101 l104 100 36 -35 c20 -19 64 -62 99 -95 34 -34 61 -66 61 -73 -1 -7 -43
-51 -94 -98 -51 -47 -95 -91 -99 -99 -4 -8 27 -45 86 -103 51 -49 113 -110
138 -134 l46 -44 177 172 177 173 -55 55 c-30 29 -55 57 -55 60 0 3 45 50 100
103 l100 97 77 -75 77 -75 46 44 c25 24 71 69 104 100 56 55 59 56 76 39 9
-10 114 -112 234 -228 119 -115 261 -253 315 -305 l97 -95 0 -132 -1 -131 158
-153 157 -152 0 -172 0 -171 -231 -224 c-128 -124 -237 -230 -243 -236 -7 -7
-87 -10 -228 -10 l-217 1 -53 56 c-29 30 -71 76 -93 100 -40 45 -95 89 -118
93 -7 2 -25 9 -42 16 -69 30 -309 16 -455 -27 -88 -25 -257 -111 -268 -135 -2
-5 -8 -8 -14 -8 -28 0 -288 -231 -367 -326 -108 -130 -211 -344 -215 -446 0
-21 -4 -38 -7 -38 -7 0 -7 -2 -8 -110 -2 -136 24 -278 68 -385 40 -95 63 -142
105 -218 27 -48 58 -96 68 -107 10 -10 18 -22 18 -26 0 -4 18 -31 41 -61 l40
-54 -29 -37 c-16 -20 -49 -71 -73 -112 -40 -69 -44 -80 -43 -140 0 -65 36
-180 56 -180 4 0 8 -6 8 -13 0 -15 72 -84 110 -106 70 -40 176 -61 317 -64 50
-1 67 3 81 19 10 10 37 35 59 55 22 20 42 42 45 49 2 6 35 -18 73 -55 125
-120 266 -213 345 -229 14 -3 36 -8 50 -11 62 -14 115 -18 250 -17 125 2 225
7 225 12 0 1 18 3 40 4 22 2 49 6 60 9 11 3 36 8 55 11 134 20 427 143 490
206 3 3 26 22 51 42 63 51 106 94 154 153 22 28 42 52 45 55 52 52 177 292
178 344 1 21 4 41 6 44 3 2 1 12 -4 21 -5 10 -5 23 0 31 5 9 5 19 -1 26 -6 7
-6 15 -1 18 5 3 6 26 2 51 -4 25 -3 48 1 50 4 3 4 18 -1 34 -4 16 -6 32 -3 34
5 6 6 70 2 142 -1 27 -22 105 -45 172 l-42 122 -130 126 -129 126 1 120 c1 86
5 122 14 128 7 4 117 109 245 233 128 124 256 249 286 277 l53 51 87 -84 c47
-47 124 -121 171 -166 47 -45 142 -138 213 -206 l127 -123 0 -114 0 -113 -43
-45 c-24 -24 -82 -81 -129 -126 -81 -77 -102 -110 -123 -193 -1 -3 -4 -12 -8
-20 -45 -115 -45 -114 -42 -395 l2 -270 43 -80 c76 -143 153 -248 250 -344
108 -106 124 -121 134 -121 4 0 16 -8 27 -19 31 -29 216 -118 294 -142 39 -12
77 -24 85 -27 29 -10 72 -19 190 -37 56 -9 208 -18 295 -18 278 -1 401 50 614
250 36 34 69 63 73 63 4 0 32 -24 62 -54 29 -30 62 -58 72 -63 27 -13 176 -6
254 12 14 4 30 7 35 8 6 2 35 15 65 29 82 41 126 87 166 174 24 52 31 81 35
150 3 30 -47 144 -63 144 -4 0 -8 9 -8 20 0 11 -7 23 -15 26 -8 3 -17 14 -20
23 -3 10 -14 27 -25 39 l-20 21 43 58 c39 51 81 113 112 165 45 76 120 235
131 277 2 9 12 46 23 84 22 74 34 170 35 262 0 73 -23 223 -35 231 -5 3 -9 14
-9 26 0 32 -74 181 -132 265 -71 103 -217 250 -348 351 -30 23 -59 46 -65 50
-24 19 -134 82 -176 101 -141 63 -266 87 -450 85 -85 0 -102 -4 -161 -31 -39
-18 -80 -48 -104 -74 -21 -23 -67 -72 -101 -108 l-61 -66 -209 -1 c-168 -1
-213 2 -232 14 -13 8 -81 70 -150 137 -69 68 -172 168 -227 222 l-102 98 0
169 0 169 157 156 158 156 -1 128 c-1 125 -1 128 25 155 21 22 265 259 587
570 l55 53 27 -28 c15 -15 61 -61 102 -101 l75 -73 77 75 78 76 60 -58 c34
-31 80 -76 104 -100 l43 -43 -58 -57 -59 -56 96 -94 c53 -51 133 -129 178
-173 l80 -79 137 133 c76 72 137 136 137 140 0 4 -45 52 -100 105 -95 92 -112
116 -90 124 5 2 49 42 98 90 l90 87 23 -20 c13 -11 61 -56 105 -100 45 -43 86
-79 91 -79 5 0 19 10 30 23 11 12 63 64 115 114 l96 93 -107 105 -106 105 115
110 114 110 75 -72 c40 -40 88 -87 106 -105 l32 -32 163 158 163 158 -138 134
c-225 219 -260 253 -277 267 -14 11 -31 -1 -126 -93 -61 -59 -112 -108 -115
-108 -5 -2 -161 146 -185 175 -14 17 -2 32 82 106 l37 32 -171 167 -170 167
65 65 66 66 -115 110 c-63 60 -127 123 -144 138 l-29 28 -84 -80 c-46 -45 -87
-81 -91 -81 -5 0 -8 -7 -8 -15 0 -8 -3 -15 -7 -15 -8 0 -66 -55 -498 -475
-132 -128 -281 -273 -331 -322 -247 -238 -528 -510 -638 -618 -68 -66 -209
-203 -315 -305 -105 -102 -250 -243 -323 -313 -72 -70 -135 -126 -139 -125 -7
3 -138 128 -524 503 -66 64 -208 201 -315 305 -107 104 -247 239 -310 301 -63
61 -220 213 -349 338 -128 124 -275 267 -326 316 -291 284 -588 571 -598 577
-7 3 -71 -51 -154 -131z m682 -3971 c22 -6 49 -13 60 -15 11 -3 47 -15 80 -29
l59 -24 3 -103 c4 -173 12 -280 28 -366 16 -84 41 -143 61 -143 6 0 32 -22 57
-48 l45 -49 223 -2 c196 -2 360 -7 381 -10 4 -1 27 -27 51 -58 159 -208 132
-495 -64 -682 -47 -45 -68 -61 -78 -61 -6 0 -11 -4 -11 -8 0 -8 -82 -52 -135
-72 -32 -12 -42 -15 -115 -30 -48 -9 -251 -7 -268 4 -5 3 -27 8 -48 12 -86 14
-265 88 -394 165 -94 56 -204 144 -299 239 -113 113 -141 144 -141 160 0 6 -4
10 -8 10 -11 0 -81 109 -120 186 -61 123 -84 211 -87 341 -4 139 26 232 107
342 92 123 194 197 335 241 63 20 202 20 278 0z m4099 -8 c115 -42 224 -124
307 -232 34 -44 43 -60 72 -130 110 -262 -20 -625 -331 -924 -65 -62 -83 -78
-127 -112 -195 -151 -431 -263 -615 -291 -99 -15 -271 -7 -347 16 -2 1 -5 1
-8 2 -27 3 -155 78 -203 118 -215 179 -269 458 -129 674 70 109 50 103 340
106 361 4 336 1 383 47 23 21 53 49 67 61 28 24 52 93 62 178 14 127 17 169
25 421 0 12 108 51 205 74 96 23 223 19 299 -8z"/>
</g>
</svg>
