<svg width="1200" height="630" viewBox="0 0 1200 630" fill="none" xmlns="http://www.w3.org/2000/svg">
<rect width="1200" height="630" fill="white"/>
<path d="M629.52 369.51L598.841 339.766L569.084 304.818L554.854 291.021V277.763L521.588 245.508L511.236 255.541L503.473 248.017L493.125 258.051L499.042 263.785L481.296 280.988L467.249 267.368L477.97 256.973L467.619 246.94L456.901 257.335L444.704 245.508L455.421 235.113L443.969 224.006L433.248 234.397L416.982 218.63L419.939 215.762L438.42 197.844L449.88 208.951L459.862 199.276L453.206 192.826L470.21 176.338L463.557 169.888L477.973 155.91L598.841 273.107L628.595 304.817V323.274L652.9 346.84H673.508C675.86 346.84 681.748 338.416 683.944 336.698C690.721 331.392 697.184 332.352 705.254 333.268C718.57 334.782 729.209 342.753 738.567 351.471C765.262 376.341 759.949 404.781 739.302 430.791C740.09 429.803 746.651 440.965 746.857 442.092C747.647 446.464 746.131 451.331 743.567 454.999C738.103 462.819 728.359 463.217 719.341 463.23L712.597 456.688C700.85 468.078 695.675 472.722 678.938 472.725C647.156 472.728 625.093 461.915 612.151 432.23V406.426L616.585 393.522L629.521 380.979V369.51H629.52ZM694.556 439.26C722.039 424.147 743.896 390.334 721.15 369.057C709.531 358.187 698.686 358.881 684.384 364.849C684.352 364.849 684.636 395.447 679.65 395.447L674.621 400.326L644.714 400.728C629.883 415.105 636.728 437.577 656.343 445.003C667.661 449.289 681.721 446.314 694.556 439.259V439.26ZM750.466 452.619L745.3 442.439L750.466 452.619ZM452.136 445.805L448.679 452.619L452.137 445.805C452.023 444.566 452.074 443.317 452.289 442.091C452.495 440.964 459.056 429.802 459.844 430.791C439.197 404.781 433.884 376.341 460.579 351.471C469.937 342.751 480.576 334.781 493.891 333.266C501.961 332.351 508.425 331.391 515.201 336.697C517.398 338.415 523.286 346.839 525.638 346.839H546.246L570.55 323.274V304.817L600.304 273.107L721.172 155.91L735.588 169.888L728.935 176.338L745.939 192.825L739.283 199.275L749.266 208.951L760.725 197.844L779.205 215.762L782.163 218.63L765.897 234.397L755.177 224.006L743.724 235.113L754.441 245.508L742.244 257.335L731.526 246.94L721.175 256.973L731.895 267.368L717.849 280.988L700.103 263.785L706.02 258.051L695.672 248.017L687.909 255.541L677.557 245.508L644.291 277.763V291.021L630.061 304.818L600.304 339.766L569.625 369.51V380.978L582.561 393.521L586.995 406.425V432.229C574.053 461.914 551.991 472.727 520.208 472.724C503.471 472.721 498.296 468.076 486.549 456.687L479.805 463.229C470.787 463.216 461.043 462.817 455.58 454.999C453.726 452.347 452.42 449.069 452.137 445.805H452.136ZM745.261 442.361L739.491 431L745.261 442.36V442.361ZM504.589 439.259C517.424 446.314 531.484 449.289 542.802 445.003C562.417 437.577 569.262 415.105 554.432 400.728L524.524 400.326L519.495 395.447C514.509 395.447 514.793 364.849 514.761 364.849C500.459 358.881 489.614 358.187 477.995 369.057C455.25 390.334 477.106 424.147 504.589 439.259V439.259Z" fill="url(#paint0_linear)"/>
<path fill-rule="evenodd" clip-rule="evenodd" d="M894.6 314.675L864.065 292.78C858.249 282.459 855.341 264.986 855.341 240.363V207.85C855.341 191.926 853.56 181.2 849.997 175.67C846.435 170.141 840.073 166.492 830.913 164.722C829.459 164.575 827.496 164.28 825.023 163.838C812.228 162.216 805.83 156.318 805.83 146.144C805.83 141.131 807.466 137.187 810.738 134.312C814.009 131.438 818.626 130 824.588 130C849.161 130 866.538 136.266 876.716 148.8C886.894 161.332 891.983 184.628 891.983 218.688V245.008C891.983 273.612 904.052 290.494 928.19 295.655C932.26 296.687 935.387 297.425 937.568 297.867C942.076 299.047 945.348 300.963 947.383 303.617C949.419 306.271 950.437 309.957 950.437 314.675C950.437 320.425 949.201 324.665 946.729 327.393C944.257 330.12 940.186 331.927 934.515 332.811C915.757 336.055 903.979 341.252 899.181 348.404C894.383 355.554 891.983 367.756 891.983 385.007V410.662C891.983 444.87 886.967 468.166 876.933 480.552C866.901 492.937 849.598 499.13 825.023 499.13C818.917 499.13 814.191 497.729 810.847 494.927C807.502 492.126 805.83 488.219 805.83 483.206C805.83 472.884 812.228 466.839 825.024 465.07C828.514 464.627 831.204 464.185 833.094 463.743C841.527 461.678 847.344 458.066 850.543 452.906C853.742 447.745 855.341 437.498 855.341 422.163V389.43C855.341 364.954 858.249 347.519 864.065 337.124C869.882 326.729 880.06 319.246 894.601 314.675H894.6ZM304.836 314.675C319.376 319.246 329.556 326.729 335.371 337.124C341.188 347.519 344.096 364.954 344.096 389.43V422.163C344.096 437.498 345.696 447.745 348.894 452.906C352.094 458.066 357.909 461.678 366.343 463.743C368.233 464.185 370.923 464.627 374.413 465.07C387.209 466.84 393.607 472.884 393.607 483.206C393.607 488.219 391.934 492.126 388.59 494.927C385.246 497.729 380.52 499.13 374.413 499.13C349.839 499.13 332.536 492.937 322.503 480.552C312.47 468.166 307.453 444.87 307.453 410.662V385.007C307.453 367.756 305.054 355.555 300.256 348.404C295.457 341.252 283.679 336.055 264.922 332.811C259.252 331.927 255.18 330.121 252.708 327.393C250.236 324.665 249 320.426 249 314.675C249 309.957 250.018 306.271 252.054 303.617C254.089 300.963 257.361 299.047 261.868 297.867C264.05 297.424 267.176 296.687 271.248 295.655C295.385 290.495 307.453 273.612 307.453 245.007V218.688C307.453 184.628 312.543 161.332 322.721 148.799C332.899 136.266 350.275 130 374.849 130C380.811 130 385.427 131.438 388.699 134.313C391.971 137.188 393.607 141.133 393.607 146.145C393.607 156.319 387.209 162.217 374.413 163.839C371.941 164.281 369.978 164.576 368.524 164.723C359.364 166.493 353.002 170.142 349.439 175.671C345.877 181.201 344.096 191.927 344.096 207.851V240.363C344.096 264.986 341.188 282.459 335.371 292.78C329.555 303.101 319.377 310.4 304.836 314.675V314.675Z" fill="url(#paint1_linear)"/>
<defs>
<linearGradient id="paint0_linear" x1="599.573" y1="243.183" x2="599.573" y2="428.469" gradientUnits="userSpaceOnUse">
<stop stop-color="#FA2327"/>
<stop offset="1" stop-color="#DF2529"/>
</linearGradient>
<linearGradient id="paint1_linear" x1="599.719" y1="231.684" x2="599.719" y2="447.566" gradientUnits="userSpaceOnUse">
<stop stop-color="#FA2327"/>
<stop offset="1" stop-color="#DF2529"/>
</linearGradient>
</defs>
</svg>
