<?xml version="1.0" encoding="UTF-8"?>
<svg width="702px" height="370px" viewBox="0 0 702 370" version="1.1" xmlns="http://www.w3.org/2000/svg" xmlns:xlink="http://www.w3.org/1999/xlink">
    <!-- Generator: Sketch 42 (36781) - http://www.bohemiancoding.com/sketch -->
    <title>leiden_devs</title>
    <desc>Created with Sketch.</desc>
    <defs>
        <linearGradient x1="50%" y1="27.5465717%" x2="50%" y2="86.0311703%" id="linearGradient-1">
            <stop stop-color="#FA2327" offset="0%"></stop>
            <stop stop-color="#DF2529" offset="100%"></stop>
        </linearGradient>
    </defs>
    <g id="Page-1" stroke="none" stroke-width="1" fill="none" fill-rule="evenodd">
        <g id="leiden_devs" fill="url(#linearGradient-1)">
            <g id="logo">
                <path d="M380.519835,239.50973 L349.841312,209.765889 L320.084224,174.818328 L305.854278,161.021155 L305.854278,147.7626 L272.587899,115.507967 L262.236471,125.541407 L254.4729,118.017111 L244.124739,128.050552 L250.042175,133.784842 L232.296403,150.987746 L218.249437,137.36799 L228.970092,126.97338 L218.618664,116.93994 L207.901276,127.334549 L195.703713,115.507967 L206.4211,105.113357 L194.968526,94.0059452 L184.247871,104.397355 L167.982275,88.6296239 L170.939359,85.7624786 L189.420318,67.8436043 L200.879427,78.9510164 L210.861628,69.2755771 L204.205738,62.8252842 L221.209788,46.3384143 L214.557166,39.8881214 L228.973359,25.9103641 L349.841312,143.106621 L379.595133,174.816648 L379.595133,193.274108 L403.89877,216.838597 L424.506869,216.838597 C426.859466,216.838597 432.747494,208.414546 434.943252,206.697439 C441.720039,201.390849 448.183146,202.350767 456.253862,203.266363 C469.568909,204.780739 480.207877,212.751713 489.565986,221.470371 C516.26143,246.340359 510.948482,274.780474 490.301173,300.790744 C491.088639,299.802312 497.649772,310.963583 497.855624,312.091445 C498.646358,316.463431 497.13024,321.329679 494.565255,324.998367 C489.102002,332.81727 479.358328,333.216457 470.340038,333.229129 L463.595926,326.68696 C451.849277,338.076338 446.673563,342.720816 429.937448,342.723984 C398.154512,342.727152 376.092377,331.914252 363.149825,302.22899 L363.149825,276.42465 L367.583817,263.520896 L380.519835,250.978311 L380.519835,239.50973 Z M445.556079,309.259118 L445.556079,309.259054 C473.03899,294.146972 494.895273,260.333704 472.150231,239.056621 C460.531015,228.186788 449.686195,228.880614 435.384364,234.849347 C435.351689,234.849347 435.635961,265.447037 430.649762,265.447037 L425.621085,270.325958 L395.713692,270.728314 C380.882527,285.105353 387.727931,307.576829 407.342711,315.002913 C418.661318,319.289358 432.721354,316.314496 445.556079,309.259118 Z M501.466207,322.618895 L496.300296,312.439752 L501.466207,322.618895 Z M203.13683,315.805116 L199.678839,322.618895 L203.13683,315.805116 C203.028297,314.55327 203.07023,313.303368 203.289423,312.091445 C203.495275,310.963583 210.056407,299.802312 210.843874,300.790744 C190.196565,274.780474 184.883616,246.340359 211.579061,221.470371 C220.93717,212.751713 231.576138,204.780739 244.891185,203.266363 C252.9619,202.350767 259.425008,201.390849 266.201795,206.697439 C268.397553,208.414546 274.285581,216.838597 276.638178,216.838597 L297.246277,216.838597 L321.549914,193.274108 L321.549914,174.816648 L351.303734,143.106621 L472.171687,25.9103641 L486.587881,39.8881214 L479.935258,46.3384143 L496.939309,62.8252842 L490.283419,69.2755771 L500.26562,78.9510164 L511.724729,67.8436043 L530.205688,85.7624786 L533.162772,88.6296239 L516.897176,104.397355 L506.176521,94.0059452 L494.723946,105.113357 L505.441334,115.507967 L493.243771,127.334549 L482.526383,116.93994 L472.174955,126.97338 L482.89561,137.36799 L468.848644,150.987746 L451.102872,133.784842 L457.020307,128.050552 L446.672147,118.017111 L438.908576,125.541407 L428.557148,115.507967 L395.290769,147.7626 L395.290769,161.021155 L381.060823,174.818328 L351.303734,209.765889 L320.625212,239.50973 L320.625212,250.978311 L333.56123,263.520896 L337.995222,276.42465 L337.995222,302.22899 C325.05267,331.914252 302.990535,342.727152 271.207599,342.723984 C254.471484,342.720816 249.29577,338.076338 237.549121,326.68696 L230.805008,333.229129 C221.786719,333.216457 212.043045,332.81727 206.579791,324.998367 C204.725825,322.346647 203.419826,319.069276 203.13683,315.805116 Z M496.261086,312.360548 L490.490688,300.999652 L496.261086,312.360548 Z M255.588967,309.259118 C268.423692,316.314496 282.483729,319.289358 293.802336,315.002913 C313.417116,307.576829 320.26252,285.105353 305.431355,270.728314 L275.523962,270.325958 L270.495285,265.447037 C265.509086,265.447037 265.793358,234.849347 265.760683,234.849347 C251.458852,228.880614 240.614032,228.186788 228.994815,239.056621 C206.249774,260.333704 228.106057,294.146972 255.588967,309.259054 L255.588967,309.259118 Z" id="Combined-Shape" fill-rule="nonzero"></path>
                <path d="M645.60068,184.675409 L615.065357,162.779761 C609.249076,152.458529 606.340979,134.98642 606.340979,110.362909 L606.340979,77.8511902 C606.340979,61.9270035 604.559769,51.2004553 600.997297,45.6712238 C597.434825,40.1419923 591.073363,36.4927542 581.91272,34.7234002 C580.45865,34.575954 578.495684,34.2810661 576.023765,33.8387276 C563.227946,32.2168196 556.830133,26.3190612 556.830133,16.1452752 C556.830133,11.1321053 558.465937,7.18797938 561.737596,4.312779 C565.009254,1.43757862 569.625858,2.84217094e-14 575.587546,2.84217094e-14 C600.161334,2.84217094e-14 617.537213,6.26636836 627.715705,18.7992931 C637.894197,31.3322178 642.983367,54.6283637 642.983367,88.6884297 L642.983367,115.00744 C642.983367,143.611998 655.051969,160.494331 679.189536,165.654947 C683.260933,166.687071 686.387137,167.42429 688.568243,167.866629 C693.075861,169.046198 696.34747,170.96297 698.383168,173.617001 C700.418867,176.271032 701.436701,179.957131 701.436701,184.675409 C701.436701,190.425809 700.200759,194.664823 697.72884,197.392577 C695.25692,200.120332 691.185585,201.92652 685.51471,202.811197 C666.757204,206.055013 654.979411,211.252413 650.180979,218.403552 C645.382547,225.554691 642.983367,237.755679 642.983367,255.006881 L642.983367,280.662387 C642.983367,314.8699 637.9669,338.166045 627.933815,350.551524 C617.90073,362.937003 600.597553,369.129649 576.023765,369.129649 C569.91667,369.129649 565.191012,367.728931 561.84665,364.927454 C558.502289,362.125977 556.830133,358.218712 556.830133,353.205542 C556.830133,342.88431 563.227946,336.839107 576.023765,335.069753 C579.513534,334.627415 582.203523,334.185083 584.093815,333.742744 C592.527422,331.678498 598.343616,328.066121 601.542571,322.905505 C604.741526,317.744889 606.340979,307.497533 606.340979,292.163131 L606.340979,259.430245 C606.340979,234.95418 609.249076,217.518931 615.065357,207.123976 C620.881638,196.729021 631.059978,189.24624 645.60068,184.675409 Z M55.8360201,184.675409 C70.376723,189.24624 80.5550624,196.729021 86.3713436,207.123976 C92.1876247,217.518931 95.0957217,234.95418 95.0957217,259.430245 L95.0957217,292.163131 C95.0957217,307.497533 96.695175,317.744889 99.8941297,322.905505 C103.093084,328.066121 108.909278,331.678498 117.342886,333.742744 C119.233177,334.185083 121.923167,334.627415 125.412936,335.069753 C138.208754,336.839107 144.606568,342.88431 144.606568,353.205542 C144.606568,358.218712 142.934412,362.125977 139.59005,364.927454 C136.245689,367.728931 131.520031,369.129649 125.412936,369.129649 C100.839148,369.129649 83.5359708,362.937003 73.5028858,350.551524 C63.4698008,338.166045 58.4533335,314.8699 58.4533335,280.662387 L58.4533335,255.006881 C58.4533335,237.755679 56.0541535,225.554691 51.2557216,218.403552 C46.4572896,211.252413 34.6794969,206.055013 15.9219901,202.811197 C10.251116,201.92652 6.17978021,200.120332 3.70786071,197.392577 C1.23594121,194.664823 0,190.425809 0,184.675409 C0,179.957131 1.01783394,176.271032 3.05353235,173.617001 C5.08923076,170.96297 8.36083984,169.046198 12.8684578,167.866629 C15.0495632,167.42429 18.1757674,166.687071 22.2471643,165.654947 C46.3847311,160.494331 58.4533335,143.611998 58.4533335,115.00744 L58.4533335,88.6884297 C58.4533335,54.6283637 63.5425032,31.3322178 73.7209953,18.7992931 C83.8994873,6.26636836 101.275367,0 125.849155,0 C131.810843,0 136.427447,1.43757862 139.699105,4.312779 C142.970763,7.18797938 144.606568,11.1321053 144.606568,16.1452752 C144.606568,26.3190612 138.208754,32.2168196 125.412936,33.8387276 C122.941016,34.2810661 120.978051,34.575954 119.52398,34.7234002 C110.363338,36.4927542 104.001876,40.1419923 100.439403,45.6712238 C96.8769311,51.2004553 95.0957217,61.9270035 95.0957217,77.8511902 L95.0957217,110.362909 C95.0957217,134.98642 92.1876247,152.458529 86.3713436,162.779761 C80.5550624,173.100993 70.376723,180.39947 55.8360201,184.675409 Z" id="Combined-Shape"></path>
            </g>
        </g>
    </g>
</svg>